<mxfile host="app.diagrams.net" agent="Mozilla/5.0 (Windows NT 10.0; Win64; x64) AppleWebKit/537.36 (KHTML, like Gecko) Chrome/133.0.0.0 Safari/537.36" version="26.0.5">
  <diagram name="Page-1" id="1j6XXuMY_Yn8I2WLIhnP">
    <mxGraphModel dx="1750" dy="870" grid="1" gridSize="10" guides="1" tooltips="1" connect="1" arrows="1" fold="1" page="1" pageScale="1" pageWidth="850" pageHeight="1100" math="0" shadow="0">
      <root>
        <mxCell id="0" />
        <mxCell id="1" parent="0" />
        <mxCell id="u4fQjEEodNdLIxIJQwQb-1" value="" style="rounded=1;whiteSpace=wrap;html=1;arcSize=5;" vertex="1" parent="1">
          <mxGeometry x="30" y="90" width="810" height="230" as="geometry" />
        </mxCell>
        <mxCell id="u4fQjEEodNdLIxIJQwQb-4" value="" style="rounded=0;whiteSpace=wrap;html=1;fillColor=#dae8fc;strokeColor=#6c8ebf;" vertex="1" parent="1">
          <mxGeometry x="60" y="150" width="740" height="50" as="geometry" />
        </mxCell>
        <mxCell id="u4fQjEEodNdLIxIJQwQb-5" value="" style="rounded=1;whiteSpace=wrap;html=1;fillColor=#fff2cc;strokeColor=#d6b656;" vertex="1" parent="1">
          <mxGeometry x="90" y="110" width="20" height="155" as="geometry" />
        </mxCell>
        <mxCell id="u4fQjEEodNdLIxIJQwQb-6" value="" style="rounded=1;whiteSpace=wrap;html=1;fillColor=#fff2cc;strokeColor=#d6b656;" vertex="1" parent="1">
          <mxGeometry x="740" y="97.5" width="20" height="155" as="geometry" />
        </mxCell>
        <mxCell id="u4fQjEEodNdLIxIJQwQb-8" value="PORTAL IN&amp;nbsp;" style="text;html=1;align=center;verticalAlign=middle;whiteSpace=wrap;rounded=0;" vertex="1" parent="1">
          <mxGeometry x="720" y="265" width="60" height="30" as="geometry" />
        </mxCell>
        <mxCell id="u4fQjEEodNdLIxIJQwQb-9" value="PORTAL OUT" style="text;html=1;align=center;verticalAlign=middle;whiteSpace=wrap;rounded=0;" vertex="1" parent="1">
          <mxGeometry x="70" y="280" width="60" height="30" as="geometry" />
        </mxCell>
        <mxCell id="u4fQjEEodNdLIxIJQwQb-12" style="edgeStyle=orthogonalEdgeStyle;rounded=0;orthogonalLoop=1;jettySize=auto;html=1;" edge="1" parent="1" source="u4fQjEEodNdLIxIJQwQb-10" target="u4fQjEEodNdLIxIJQwQb-11">
          <mxGeometry relative="1" as="geometry" />
        </mxCell>
        <mxCell id="u4fQjEEodNdLIxIJQwQb-10" value="PORTAL&amp;nbsp;&lt;br&gt;PLC OMRON" style="rounded=1;whiteSpace=wrap;html=1;" vertex="1" parent="1">
          <mxGeometry x="50" y="390" width="120" height="60" as="geometry" />
        </mxCell>
        <mxCell id="u4fQjEEodNdLIxIJQwQb-15" style="edgeStyle=orthogonalEdgeStyle;rounded=0;orthogonalLoop=1;jettySize=auto;html=1;" edge="1" parent="1" source="u4fQjEEodNdLIxIJQwQb-11" target="u4fQjEEodNdLIxIJQwQb-14">
          <mxGeometry relative="1" as="geometry" />
        </mxCell>
        <mxCell id="u4fQjEEodNdLIxIJQwQb-20" style="edgeStyle=orthogonalEdgeStyle;rounded=0;orthogonalLoop=1;jettySize=auto;html=1;" edge="1" parent="1" source="u4fQjEEodNdLIxIJQwQb-11" target="u4fQjEEodNdLIxIJQwQb-10">
          <mxGeometry relative="1" as="geometry" />
        </mxCell>
        <mxCell id="u4fQjEEodNdLIxIJQwQb-11" value="EXPRESS JS" style="rounded=1;whiteSpace=wrap;html=1;" vertex="1" parent="1">
          <mxGeometry x="280" y="390" width="120" height="60" as="geometry" />
        </mxCell>
        <mxCell id="u4fQjEEodNdLIxIJQwQb-13" value="TCP/IP" style="text;html=1;align=center;verticalAlign=middle;whiteSpace=wrap;rounded=0;" vertex="1" parent="1">
          <mxGeometry x="190" y="420" width="60" height="30" as="geometry" />
        </mxCell>
        <mxCell id="u4fQjEEodNdLIxIJQwQb-17" style="edgeStyle=orthogonalEdgeStyle;rounded=0;orthogonalLoop=1;jettySize=auto;html=1;" edge="1" parent="1" source="u4fQjEEodNdLIxIJQwQb-14" target="u4fQjEEodNdLIxIJQwQb-16">
          <mxGeometry relative="1" as="geometry">
            <Array as="points">
              <mxPoint x="570" y="490" />
              <mxPoint x="365" y="490" />
            </Array>
          </mxGeometry>
        </mxCell>
        <mxCell id="u4fQjEEodNdLIxIJQwQb-18" style="edgeStyle=orthogonalEdgeStyle;rounded=0;orthogonalLoop=1;jettySize=auto;html=1;" edge="1" parent="1" source="u4fQjEEodNdLIxIJQwQb-14" target="u4fQjEEodNdLIxIJQwQb-11">
          <mxGeometry relative="1" as="geometry" />
        </mxCell>
        <mxCell id="u4fQjEEodNdLIxIJQwQb-14" value="KE DB MYSQL LOCAL" style="rounded=1;whiteSpace=wrap;html=1;" vertex="1" parent="1">
          <mxGeometry x="510" y="390" width="120" height="60" as="geometry" />
        </mxCell>
        <mxCell id="u4fQjEEodNdLIxIJQwQb-19" style="edgeStyle=orthogonalEdgeStyle;rounded=0;orthogonalLoop=1;jettySize=auto;html=1;" edge="1" parent="1" source="u4fQjEEodNdLIxIJQwQb-16" target="u4fQjEEodNdLIxIJQwQb-14">
          <mxGeometry relative="1" as="geometry" />
        </mxCell>
        <mxCell id="u4fQjEEodNdLIxIJQwQb-26" style="edgeStyle=orthogonalEdgeStyle;rounded=0;orthogonalLoop=1;jettySize=auto;html=1;" edge="1" parent="1" source="u4fQjEEodNdLIxIJQwQb-16" target="u4fQjEEodNdLIxIJQwQb-21">
          <mxGeometry relative="1" as="geometry">
            <Array as="points">
              <mxPoint x="365" y="660" />
              <mxPoint x="575" y="660" />
            </Array>
          </mxGeometry>
        </mxCell>
        <mxCell id="u4fQjEEodNdLIxIJQwQb-27" style="edgeStyle=orthogonalEdgeStyle;rounded=0;orthogonalLoop=1;jettySize=auto;html=1;" edge="1" parent="1" source="u4fQjEEodNdLIxIJQwQb-16" target="u4fQjEEodNdLIxIJQwQb-24">
          <mxGeometry relative="1" as="geometry">
            <Array as="points">
              <mxPoint x="365" y="600" />
              <mxPoint x="695" y="600" />
            </Array>
          </mxGeometry>
        </mxCell>
        <mxCell id="u4fQjEEodNdLIxIJQwQb-16" value="LARAVEL WEB" style="rounded=1;whiteSpace=wrap;html=1;" vertex="1" parent="1">
          <mxGeometry x="305" y="520" width="120" height="60" as="geometry" />
        </mxCell>
        <mxCell id="u4fQjEEodNdLIxIJQwQb-21" value="PC" style="rounded=1;whiteSpace=wrap;html=1;fillColor=#fff2cc;strokeColor=#d6b656;" vertex="1" parent="1">
          <mxGeometry x="540" y="670" width="70" height="80" as="geometry" />
        </mxCell>
        <mxCell id="u4fQjEEodNdLIxIJQwQb-23" style="edgeStyle=orthogonalEdgeStyle;rounded=0;orthogonalLoop=1;jettySize=auto;html=1;" edge="1" parent="1" source="u4fQjEEodNdLIxIJQwQb-22" target="u4fQjEEodNdLIxIJQwQb-21">
          <mxGeometry relative="1" as="geometry" />
        </mxCell>
        <mxCell id="u4fQjEEodNdLIxIJQwQb-22" value="SCANNER" style="rounded=1;whiteSpace=wrap;html=1;" vertex="1" parent="1">
          <mxGeometry x="410" y="710" width="70" height="80" as="geometry" />
        </mxCell>
        <mxCell id="u4fQjEEodNdLIxIJQwQb-24" value="HANDHELD SCANNER" style="rounded=1;whiteSpace=wrap;html=1;fillColor=#fff2cc;strokeColor=#d6b656;" vertex="1" parent="1">
          <mxGeometry x="660" y="670" width="70" height="80" as="geometry" />
        </mxCell>
        <mxCell id="u4fQjEEodNdLIxIJQwQb-28" style="edgeStyle=orthogonalEdgeStyle;rounded=0;orthogonalLoop=1;jettySize=auto;html=1;entryX=0;entryY=0.5;entryDx=0;entryDy=0;" edge="1" parent="1" source="u4fQjEEodNdLIxIJQwQb-25" target="u4fQjEEodNdLIxIJQwQb-16">
          <mxGeometry relative="1" as="geometry" />
        </mxCell>
        <mxCell id="u4fQjEEodNdLIxIJQwQb-25" value="PORTAL CAMERA" style="rounded=1;whiteSpace=wrap;html=1;fillColor=#fff2cc;strokeColor=#d6b656;" vertex="1" parent="1">
          <mxGeometry x="20" y="480" width="220" height="160" as="geometry" />
        </mxCell>
        <mxCell id="u4fQjEEodNdLIxIJQwQb-29" value="VIA API ATAU MODBUS" style="text;html=1;align=center;verticalAlign=middle;whiteSpace=wrap;rounded=0;" vertex="1" parent="1">
          <mxGeometry x="230" y="660" width="100" height="50" as="geometry" />
        </mxCell>
        <mxCell id="u4fQjEEodNdLIxIJQwQb-30" value="a" style="rounded=1;whiteSpace=wrap;html=1;fillColor=#e1d5e7;strokeColor=#9673a6;" vertex="1" parent="1">
          <mxGeometry x="1200" y="340" width="120" height="60" as="geometry" />
        </mxCell>
        <mxCell id="u4fQjEEodNdLIxIJQwQb-31" value="" style="rounded=1;whiteSpace=wrap;html=1;fillColor=#e1d5e7;strokeColor=#9673a6;" vertex="1" parent="1">
          <mxGeometry x="1310" y="180" width="120" height="40" as="geometry" />
        </mxCell>
        <mxCell id="u4fQjEEodNdLIxIJQwQb-32" value="b" style="rounded=1;whiteSpace=wrap;html=1;fillColor=#e1d5e7;strokeColor=#9673a6;" vertex="1" parent="1">
          <mxGeometry x="1050" y="340" width="120" height="60" as="geometry" />
        </mxCell>
        <mxCell id="u4fQjEEodNdLIxIJQwQb-33" value="a" style="rounded=1;whiteSpace=wrap;html=1;fillColor=#e1d5e7;strokeColor=#9673a6;" vertex="1" parent="1">
          <mxGeometry x="900" y="340" width="120" height="60" as="geometry" />
        </mxCell>
        <mxCell id="u4fQjEEodNdLIxIJQwQb-35" value="b" style="rounded=1;whiteSpace=wrap;html=1;fillColor=#e1d5e7;strokeColor=#9673a6;" vertex="1" parent="1">
          <mxGeometry x="1340" y="340" width="120" height="60" as="geometry" />
        </mxCell>
        <mxCell id="u4fQjEEodNdLIxIJQwQb-36" value="c" style="rounded=1;whiteSpace=wrap;html=1;fillColor=#e1d5e7;strokeColor=#9673a6;" vertex="1" parent="1">
          <mxGeometry x="1490" y="340" width="120" height="60" as="geometry" />
        </mxCell>
        <mxCell id="u4fQjEEodNdLIxIJQwQb-37" value="" style="ellipse;whiteSpace=wrap;html=1;fillColor=#fff2cc;strokeColor=#d6b656;" vertex="1" parent="1">
          <mxGeometry x="970" y="330" width="40" height="30" as="geometry" />
        </mxCell>
        <mxCell id="u4fQjEEodNdLIxIJQwQb-38" value="" style="ellipse;whiteSpace=wrap;html=1;fillColor=#fff2cc;strokeColor=#d6b656;" vertex="1" parent="1">
          <mxGeometry x="1130" y="330" width="40" height="30" as="geometry" />
        </mxCell>
        <mxCell id="u4fQjEEodNdLIxIJQwQb-39" value="" style="ellipse;whiteSpace=wrap;html=1;fillColor=#fff2cc;strokeColor=#d6b656;" vertex="1" parent="1">
          <mxGeometry x="1290" y="330" width="40" height="30" as="geometry" />
        </mxCell>
        <mxCell id="u4fQjEEodNdLIxIJQwQb-40" value="" style="ellipse;whiteSpace=wrap;html=1;fillColor=#fff2cc;strokeColor=#d6b656;" vertex="1" parent="1">
          <mxGeometry x="1430" y="330" width="40" height="30" as="geometry" />
        </mxCell>
        <mxCell id="u4fQjEEodNdLIxIJQwQb-41" value="" style="ellipse;whiteSpace=wrap;html=1;fillColor=#fff2cc;strokeColor=#d6b656;" vertex="1" parent="1">
          <mxGeometry x="1580" y="330" width="40" height="30" as="geometry" />
        </mxCell>
        <mxCell id="u4fQjEEodNdLIxIJQwQb-48" style="edgeStyle=orthogonalEdgeStyle;rounded=0;orthogonalLoop=1;jettySize=auto;html=1;exitX=0.5;exitY=0.5;exitDx=0;exitDy=0;exitPerimeter=0;" edge="1" parent="1" source="u4fQjEEodNdLIxIJQwQb-43" target="u4fQjEEodNdLIxIJQwQb-30">
          <mxGeometry relative="1" as="geometry">
            <mxPoint x="1250" y="260.11764705882354" as="targetPoint" />
          </mxGeometry>
        </mxCell>
        <mxCell id="u4fQjEEodNdLIxIJQwQb-43" value="Actor" style="shape=umlActor;verticalLabelPosition=bottom;verticalAlign=top;html=1;outlineConnect=0;" vertex="1" parent="1">
          <mxGeometry x="1245" y="157.5" width="30" height="60" as="geometry" />
        </mxCell>
        <mxCell id="u4fQjEEodNdLIxIJQwQb-47" style="edgeStyle=orthogonalEdgeStyle;rounded=0;orthogonalLoop=1;jettySize=auto;html=1;entryX=0.5;entryY=1;entryDx=0;entryDy=0;" edge="1" parent="1" source="u4fQjEEodNdLIxIJQwQb-44" target="u4fQjEEodNdLIxIJQwQb-33">
          <mxGeometry relative="1" as="geometry" />
        </mxCell>
        <mxCell id="u4fQjEEodNdLIxIJQwQb-44" value="Actor" style="shape=umlActor;verticalLabelPosition=bottom;verticalAlign=top;html=1;outlineConnect=0;" vertex="1" parent="1">
          <mxGeometry x="945" y="460" width="30" height="60" as="geometry" />
        </mxCell>
      </root>
    </mxGraphModel>
  </diagram>
</mxfile>
